<svg width="8" height="5" viewBox="0 0 8 5" fill="none" xmlns="http://www.w3.org/2000/svg">
<path d="M1.7077 0.293202L3.8287 2.4142L5.9497 0.293202C6.13721 0.105562 6.39158 9.3828e-05 6.65685 6.25745e-08C6.92212 -9.37028e-05 7.17656 0.105194 7.3642 0.292702C7.55184 0.48021 7.65731 0.734578 7.65741 0.999848C7.6575 1.26512 7.55221 1.51956 7.3647 1.7072L4.5357 4.5362C4.34818 4.72367 4.09387 4.82899 3.8287 4.82899C3.56354 4.82899 3.30923 4.72367 3.1217 4.5362L0.292703 1.7072C0.199858 1.61429 0.126223 1.504 0.0760012 1.38264C0.0257792 1.26127 -4.63654e-05 1.1312 6.2488e-08 0.999848C4.64904e-05 0.8685 0.0259643 0.738447 0.0762721 0.617115C0.12658 0.495783 0.200293 0.385546 0.293203 0.292702C0.386114 0.199857 0.4964 0.126222 0.617768 0.0760003C0.739136 0.0257783 0.869209 -4.63681e-05 1.00056 6.25745e-08C1.13191 4.64933e-05 1.26196 0.0259633 1.38329 0.0762711C1.50462 0.126579 1.61486 0.200292 1.7077 0.293202Z" fill="#162061"/>
</svg>
