<svg width="22" height="28" viewBox="0 0 36 39" fill="none" xmlns="http://www.w3.org/2000/svg">
<path d="M2.5 37.5H12.5C13.052 37.5 13.5 37.052 13.5 36.5V26.5C13.5 25.395 14.395 24.5 15.5 24.5H20.5C21.605 24.5 22.5 25.395 22.5 26.5V36.5C22.5 37.052 22.948 37.5 23.5 37.5H33.5C34.052 37.5 34.5 37.052 34.5 36.5V17.411C34.5 15.573 33.657 13.836 32.213 12.698L18 1.5L3.787 12.698C2.343 13.836 1.5 15.573 1.5 17.411V36.5C1.5 37.052 1.948 37.5 2.5 37.5Z" fill="white" stroke="black" stroke-width="3" stroke-miterlimit="10" stroke-linejoin="round"/>
</svg>
