<svg width="25" height="23" viewBox="0 0 25 23" fill="none" xmlns="http://www.w3.org/2000/svg">
<path fill-rule="evenodd" clip-rule="evenodd" d="M10.7675 0.517243C11.1985 0.182008 11.7289 0 12.2749 0C12.8209 0 13.3513 0.182008 13.7822 0.517243L24.0734 8.52038C24.9977 9.24091 24.487 10.72 23.3185 10.72H22.0947V20.5398C22.0947 21.1909 21.836 21.8153 21.3756 22.2757C20.9152 22.7361 20.2908 22.9948 19.6397 22.9948H4.91003C4.25893 22.9948 3.63451 22.7361 3.17412 22.2757C2.71372 21.8153 2.45508 21.1909 2.45508 20.5398V10.72H1.23128C0.0615011 10.72 -0.446674 9.23968 0.476388 8.52161L10.7675 0.517243ZM4.44972 8.54125C4.73082 8.76833 4.91003 9.11571 4.91003 9.50482V20.5398H19.6397V9.50482C19.6397 9.11571 19.8189 8.76833 20.1 8.54125L12.2749 2.45543L4.44972 8.54125Z" fill="#162061"/>
</svg>
