<svg width="1535" height="1700" viewBox="0 0 1535 1700" fill="none" xmlns="http://www.w3.org/2000/svg">
<path d="M843.898 1028.6L606.386 990.596L735.888 284.08L965.409 323.306L843.898 1028.6Z" fill="#E7E8EF"/>
<rect x="613.653" y="1341.65" width="107.776" height="107.776" transform="rotate(-79.4135 613.653 1341.65)" fill="#E7E8EF"/>
<path d="M1033.85 1058.1L867.994 1032.31L988.874 328.108L1152.37 355.454L1033.85 1058.1Z" fill="#E7E8EF"/>
<path d="M757.235 1256.98L740.631 1364L975.156 1404.66L1030.77 1081.11L864.285 1056.41L827.167 1269.66L757.235 1256.98Z" fill="#E7E8EF"/>
<path d="M634.23 715.148L450.253 680.352L499.252 401.084L522.605 360.635L648.621 296.374L711.454 286.006L634.23 715.148Z" fill="#E7E8EF"/>
<path d="M629.429 738.613L445.452 703.817L335.619 1318.2L483.103 1320.26L591.682 1339.22L612.196 1233L541.633 1221.41L629.429 738.613Z" fill="#E7E8EF"/>
<path d="M603.309 1013.6L570.531 1201.66L808.504 1241.39L841.914 1052.24L603.309 1013.6Z" fill="#E7E8EF"/>
<path d="M691.86 719.268L698.589 720.238L701.159 705.688L724.624 710.489L727.655 697.664L849.984 723.104L843.92 748.755L851.741 750.356L840.492 815.285L822.031 811.914L819.461 826.464L675.938 797.533L691.86 719.268Z" fill="white"/>
<path d="M395.537 1083.13L388.966 1117.24L478.914 1135.64L481.947 1122.82L505.997 1136.7L485.314 1245.74L411.008 1230.54L398.959 1299.38L435.249 1307.21L443.421 1265.29L501.159 1273.84L499.22 1287.3L538.328 1295.3L541.36 1282.48L589.553 1289.89L595.324 1259.7L571.859 1254.9L573.459 1247.08L528.423 1234.19L521.728 1260.94L515.631 1258.87L561.552 1002.61L530.266 996.207L510.337 1111.51L484.347 1111.08L485.486 1101.54L395.537 1083.13Z" fill="white"/>
<path d="M563.322 991.97L533.76 985.105L556.044 868.243L484.387 856.024L490.452 830.373L548.483 843.471L547.513 850.199L558.152 851.969L579.636 739.017L605.919 743.988L563.322 991.97Z" fill="white"/>
<path d="M633.541 1291.97L656.375 1297.86L655.698 1309.13L692.451 1318.69L694.559 1302.42L720.379 1305.66L723.502 1272.48L699.406 1268.77L676.449 1255.52L658.404 1264.05L639.482 1258.96L633.541 1291.97Z" fill="white"/>
<path d="M639.531 579.734L609.169 576.781L632.084 458.825L657.905 462.071L639.531 579.734Z" fill="white"/>
<path d="M608.507 408.772L632.141 410.756L631.465 422.027L661.658 427.798L661.534 420.438L671.08 421.577L677.314 393.108L669.661 388.69L678.848 329.858L649.117 325.812L637.112 384.474L614.741 380.303L608.507 408.772Z" fill="white"/>
<path d="M605.967 592.424L582.759 705.837L611.859 710.977L634.436 598.657L605.967 592.424Z" fill="white"/>
<path d="M748.025 659.28L755.477 599.449L763.939 601.419L790.394 462.185L779.755 460.416L783.802 430.683L779.891 429.884L777.197 437.075L757.643 433.073L770.572 377.86L778.393 379.461L787.32 343.801L890.726 364.145L884.324 395.432L894.332 398.295L884.514 458.219L867.778 454.387L869.841 448.29L863.743 446.227L857.048 472.972L846.409 471.202L818.06 613.715L827.606 614.854L814.509 672.885L748.025 659.28Z" fill="white"/>
<path d="M854.414 495.357L833.945 591.403L871.498 597.051L889.319 498.018L854.414 495.357Z" fill="white"/>
<path d="M723.826 918.468L674.078 908.695L682.927 855.499L731.581 864.641L735.413 847.904L750.471 842.021L767.962 852.12L765.054 872.305L814.801 882.078L806.584 934.181L757.468 923.315L751.527 956.326L778.903 961.928L773.21 1009.66L680.906 992.807L691.141 944.784L717.423 949.754L723.826 918.468Z" fill="white"/>
<path d="M913.867 927.613L893.183 1036.65L919.004 1039.9L937.963 931.321L913.867 927.613Z" fill="white"/>
<path d="M914.42 908.983L940.24 912.229L960.292 804.282L976.567 806.39L982.676 770.561L965.309 767.822L986.454 660.506L959.541 656.628L937.933 762.22L924.476 760.281L918.367 796.11L930.099 798.511L914.42 908.983Z" fill="white"/>
<path d="M1109.97 524.836L982.299 503.599L987.699 451.327L1026.81 459.33L1018.39 486.537L1040.13 491.8L1046.19 466.149L1074.66 472.382L1068.77 495.216L1115.23 503.095L1109.97 524.836Z" fill="white"/>
<path d="M1018.75 405.119L996.84 402.673L994.011 440.395L1014.83 442.21L1018.75 405.119Z" fill="white"/>
<path d="M1062 363.037L1040.09 360.59L1037.26 398.312L1058.07 400.127L1062 363.037Z" fill="white"/>
<path d="M1023.81 358.482L1001.9 356.036L999.072 393.758L1019.89 395.573L1023.81 358.482Z" fill="white"/>
<path d="M1094.02 413.596L1072.12 411.15L1069.29 448.872L1090.1 450.687L1094.02 413.596Z" fill="white"/>
<path d="M1100.81 366.498L1078.9 364.051L1076.07 401.773L1096.89 403.588L1100.81 366.498Z" fill="white"/>
<path d="M1138.19 374.962L1116.28 372.516L1113.46 410.238L1134.27 412.053L1138.19 374.962Z" fill="white"/>
<path d="M958.831 640.185L986.207 645.787L1004.49 548.478L1114.79 566.976L1119.76 540.693L979.729 518.149L958.831 640.185Z" fill="white"/>
<path d="M1058.03 410.305L1036.12 407.858L1033.29 445.58L1054.1 447.395L1058.03 410.305Z" fill="white"/>
<path d="M673.193 1177.84L681.646 1178.35L679.414 1187.27L705.696 1192.24L707.928 1183.32L715.288 1183.2L733.876 1052.54L701.496 1045.51L684.43 1150.81L677.702 1149.84L673.193 1177.84Z" fill="white"/>
<path d="M775.65 1270.52L771.356 1285.53L756.806 1282.96L750.403 1314.25L822.691 1325.38L829.308 1281.1L775.65 1270.52Z" fill="white"/>
<path d="M890.317 1188.05L859.662 1180.55L880.514 1068.69L910.246 1072.74L890.317 1188.05Z" fill="white"/>
<path d="M829.68 1303.17L825.678 1322.73L881.23 1330.02L882.876 1312.02L874.423 1311.52L874.93 1303.06L868.202 1302.09L885.73 1198.52L854.905 1193.84L837.039 1303.05L829.68 1303.17Z" fill="white"/>
</svg>
