<svg width="27" height="23" viewBox="0 0 27 23" fill="none" xmlns="http://www.w3.org/2000/svg">
<path d="M1.63643 20.7118L12.7939 1.6182C12.8556 1.51332 12.9452 1.42608 13.0534 1.36538C13.1616 1.30468 13.2846 1.27271 13.4098 1.27271C13.535 1.27271 13.658 1.30468 13.7662 1.36538C13.8744 1.42608 13.964 1.51332 14.0257 1.6182L25.1832 20.7118C25.2541 20.8342 25.2842 20.9747 25.2692 21.1142C25.2542 21.2536 25.1949 21.3852 25.0993 21.491C25.0038 21.5968 24.8767 21.6717 24.7354 21.7055C24.5941 21.7392 24.4453 21.7302 24.3095 21.6796L13.6661 17.6968C13.5012 17.6351 13.3184 17.6351 13.1535 17.6968L2.51006 21.681C2.37407 21.7318 2.22509 21.741 2.08347 21.7073C1.94186 21.6735 1.81453 21.5985 1.71891 21.4924C1.6233 21.3863 1.56405 21.2544 1.54929 21.1147C1.53453 20.975 1.56496 20.8343 1.63643 20.7118Z" stroke="#162061" stroke-width="2" stroke-linecap="round" stroke-linejoin="round"/>
</svg>
