<svg width="12" height="14" viewBox="0 0 12 14" fill="none" xmlns="http://www.w3.org/2000/svg">
<path d="M6 9.32387C6.75523 9.32303 7.47928 9.03341 8.01331 8.51853C8.54735 8.00366 8.84775 7.30558 8.84862 6.57743V3.61973C8.84862 2.89133 8.54849 2.19276 8.01427 1.6777C7.48006 1.16265 6.7555 0.873291 6 0.873291C5.2445 0.873291 4.51994 1.16265 3.98572 1.6777C3.4515 2.19276 3.15138 2.89133 3.15138 3.61973V6.57743C3.15225 7.30558 3.45265 8.00366 3.98668 8.51853C4.52071 9.03341 5.24476 9.32303 6 9.32387ZM4.46613 3.61973C4.46613 3.22751 4.62773 2.85136 4.91539 2.57402C5.20304 2.29669 5.59319 2.14088 6 2.14088C6.40681 2.14088 6.79695 2.29669 7.08461 2.57402C7.37227 2.85136 7.53387 3.22751 7.53387 3.61973V6.57743C7.53387 6.96965 7.37227 7.3458 7.08461 7.62314C6.79695 7.90048 6.40681 8.05629 6 8.05629C5.59319 8.05629 5.20304 7.90048 4.91539 7.62314C4.62773 7.3458 4.46613 6.96965 4.46613 6.57743V3.61973ZM6.65737 11.3953V12.4928C6.65737 12.6609 6.58811 12.8221 6.46483 12.941C6.34155 13.0599 6.17434 13.1266 6 13.1266C5.82565 13.1266 5.65845 13.0599 5.53516 12.941C5.41188 12.8221 5.34262 12.6609 5.34262 12.4928V11.3953C4.13089 11.24 3.01877 10.6661 2.21277 9.78001C1.40678 8.89394 0.961685 7.75598 0.960136 6.57743C0.960136 6.40934 1.0294 6.24813 1.15268 6.12927C1.27596 6.01041 1.44316 5.94364 1.61751 5.94364C1.79186 5.94364 1.95906 6.01041 2.08234 6.12927C2.20562 6.24813 2.27488 6.40934 2.27488 6.57743C2.27488 7.52996 2.66735 8.44347 3.36594 9.11701C4.06454 9.79054 5.01204 10.1689 6 10.1689C6.98796 10.1689 7.93546 9.79054 8.63405 9.11701C9.33265 8.44347 9.72511 7.52996 9.72511 6.57743C9.72511 6.40934 9.79437 6.24813 9.91765 6.12927C10.0409 6.01041 10.2081 5.94364 10.3825 5.94364C10.5568 5.94364 10.724 6.01041 10.8473 6.12927C10.9706 6.24813 11.0399 6.40934 11.0399 6.57743C11.0383 7.75598 10.5932 8.89394 9.78722 9.78001C8.98123 10.6661 7.86911 11.24 6.65737 11.3953Z" fill="#162061"/>
</svg>
